# xmcd CD database file
#
# Track frame offsets:
#	150
#	22762
#	52825
#	72150
#
# Disc length: 1261 seconds
#
# Revision: 0
# Processed by: cddbd v1.5.1PL0 Copyright (c) Steve Scherf et al.
# Submitted via: CDex 1.51
#
DISCID=2404eb04
DTITLE=H.A.N.D. - PRIME HIGH
DYEAR=1995
DGENRE=J-POP
TTITLE0=PRIME HIGH original mix
TTITLE1=PRIME HIGH extended mix
TTITLE2=Gi mi de Mic
TTITLE3=PRIME HIGH inst
EXTD=YEAR: 1995
EXTT0=
EXTT1=
EXTT2=
EXTT3=
PLAYORDER=
